<?xml version="1.0" encoding="UTF-8"?>
<svg id="Layer_1" xmlns="http://www.w3.org/2000/svg" viewBox="0 0 1920 1080">
  <defs>
    <style>
      .cls-1 {
        fill: #f58220;
      }

      .cls-2 {
        fill: #fff;
      }

      .cls-3 {
        fill: #fcfbfa;
      }

      .cls-4 {
        fill: #f6f9f4;
      }
    </style>
  </defs>
  <circle class="cls-1" cx="960" cy="540" r="414.69"/>
  <g>
    <g>
      <path class="cls-2" d="M897.74,431.16c-.04-60.59,49.04-109.75,109.63-109.79l130.75-.1c25.47-.02,46.1-20.68,46.08-46.15h0c-.02-25.47-20.68-46.1-46.15-46.08l-130.76.1c-111.53.08-201.87,90.56-201.79,202.09l.1,130.77c.02,25.47,20.68,46.1,46.15,46.08h0c25.47-.02,46.1-20.68,46.08-46.15l-.1-130.76Z"/>
      <path class="cls-2" d="M1016.97,507.49l.1,130.77c.04,60.59-49.04,109.74-109.62,109.79l-130.76.1c-25.47.02-46.1,20.68-46.08,46.15h0c.02,25.47,20.68,46.1,46.15,46.08l130.76-.1c111.53-.08,201.87-90.56,201.79-202.09l-.1-130.77c-.02-25.47-20.68-46.1-46.15-46.08h0c-25.47.02-46.1,20.68-46.08,46.15Z"/>
    </g>
    <path class="cls-3" d="M905.21,748.04s77.49,2.31,105.05-73.16c0,0,77.97-29.56,68.53-210.97,0,0,27.55,7.41,31.53,39.1l-.98,155.12s-8.71,132.26-204.13,89.91Z"/>
    <path class="cls-4" d="M1178.55,253s14.24,24.79-2.12,47.78c0,0-12.52,18.32-32.92,20.16l-143.84.7s-83.9,1.06-101.21,96.91c0,0-20.68-165.09,142.92-170.04l130.84-4.39s4.52,5.01,6.34,8.88Z"/>
  </g>
</svg>